# xmcd
#
# Track frame offsets: 
#        150
#        12967
#        29625
#        45707
#        68292
#        84335
#        95955
#        114222
#        128870
#        141362
#        165857
#        179300
#        192937
#        212982
#        228530
#        248770
#
# Disc length: 3492 seconds
#
# Revision: 2
# Processed by: cddbd v1.5.2PL0 Copyright (c) Steve Scherf et al.
# Submitted via: ExactAudioCopy v0.99pb4
#
DISCID=d60da210
DTITLE=Various Artist - Motown 30th Anniversary Collection Disc 3
DYEAR=1988
DGENRE=Pop
TTITLE0=Supremes - Reflections
TTITLE1=Marvin Gaye - That's The Way Love Is
TTITLE2=Jermaine Jackson - Let's Get Serious
TTITLE3=Rockwell - Somebody's Watching Me
TTITLE4=Bonnie Pointer - Heaven Must Have Sent You
TTITLE5=Martha And The Vandellas - Quicksand
TTITLE6=Smokey Robinson - Just To See Her
TTITLE7=Undisputed Truth - Smiling Faces Sometimes
TTITLE8=Miracles - Going To A Go-Go
TTITLE9=Diana Ross - I'm Coming Out
TTITLE10=Jimmy Ruffin - What Becomes Of The Brokenhearted
TTITLE11=Four Tops - Bernadette
TTITLE12=DeBarge - Who's Holding Donna Now
TTITLE13=Rick James - Super Freak
TTITLE14=Mary Jane Girls - In My House
TTITLE15=Martha And The Vandellas - Nowhere To Run
EXTD=
EXTT0=
EXTT1=
EXTT2=
EXTT3=
EXTT4=
EXTT5=
EXTT6=
EXTT7=
EXTT8=
EXTT9=
EXTT10=
EXTT11=
EXTT12=
EXTT13=
EXTT14=
EXTT15=
PLAYORDER=
